<svg width="33" height="40" viewBox="0 0 33 40" fill="none" xmlns="http://www.w3.org/2000/svg">
<path d="M10.4126 21.433L14.043 25.0634L21.5898 17.7984L17.9559 14.1645L10.4126 21.433ZM7.99238 27.0803C7.9124 27.4037 8.07236 27.5637 8.39576 27.4837L13.2363 25.8702L9.60589 22.2398L7.99238 27.0803ZM23.2033 12.551C21.5933 10.9375 19.9763 12.1476 19.9763 12.1476C19.712 12.3493 18.7662 13.3578 18.7662 13.3578L22.3966 16.9881C22.3966 16.9881 23.4015 16.0423 23.6067 15.778C23.6067 15.778 24.8168 14.168 23.2033 12.551Z" fill="#323232"/>
<path d="M13.7278 0.391841C13.8517 0.267633 13.9989 0.169087 14.1609 0.101849C14.3229 0.0346104 14.4966 0 14.6721 0C14.8475 0 15.0212 0.0346104 15.1833 0.101849C15.3453 0.169087 15.4925 0.267633 15.6164 0.391841L19.6176 4.39311C19.7419 4.517 19.8404 4.66418 19.9076 4.82622C19.9749 4.98826 20.0095 5.16197 20.0095 5.33741C20.0095 5.51284 19.9749 5.68655 19.9076 5.84859C19.8404 6.01063 19.7419 6.15781 19.6176 6.28171L15.6164 10.283C15.3659 10.5334 15.0263 10.6741 14.6721 10.6741C14.3179 10.6741 13.9782 10.5334 13.7278 10.283C13.4773 10.0325 13.3366 9.69285 13.3366 9.33867C13.3366 8.98449 13.4773 8.64482 13.7278 8.39437L15.443 6.68183C12.7369 6.79622 10.1298 7.73176 7.96846 9.364C5.80708 10.9962 4.19386 13.2478 3.34336 15.8193C2.49286 18.3908 2.44541 21.1602 3.2073 23.7593C3.96919 26.3584 5.50432 28.664 7.60851 30.3693C7.88336 30.5922 8.05843 30.9151 8.0952 31.267C8.13196 31.619 8.02742 31.9711 7.80457 32.2459C7.58172 32.5208 7.25881 32.6958 6.90688 32.7326C6.55495 32.7694 6.20283 32.6648 5.92798 32.442C3.39393 30.3883 1.54782 27.6095 0.63687 24.4776C-0.274081 21.3456 -0.206385 18.0101 0.830894 14.9177C1.86817 11.8253 3.82551 9.12368 6.4408 7.17454C9.05609 5.22541 12.2045 4.12185 15.4643 4.01165L13.7304 2.27777C13.4804 2.02766 13.3399 1.68847 13.3399 1.33481C13.3399 0.981142 13.4777 0.641957 13.7278 0.391841ZM24.2111 7.77018C24.434 7.49582 24.7568 7.3212 25.1084 7.28469C25.4601 7.24817 25.8118 7.35276 26.0864 7.57545C28.6204 9.62909 30.4665 12.4079 31.3775 15.5399C32.2884 18.6718 32.2207 22.0073 31.1834 25.0997C30.1462 28.1921 28.1888 30.8938 25.5735 32.8429C22.9583 34.792 19.8099 35.8956 16.55 36.0058L18.2839 37.7397C18.5268 37.9912 18.6613 38.3281 18.6582 38.6778C18.6552 39.0275 18.5149 39.3621 18.2676 39.6094C18.0204 39.8566 17.6858 39.9969 17.3361 40C16.9864 40.003 16.6495 39.8686 16.398 39.6256L12.3967 35.6243C12.2725 35.5004 12.1739 35.3533 12.1067 35.1912C12.0395 35.0292 12.0049 34.8555 12.0049 34.68C12.0049 34.5046 12.0395 34.3309 12.1067 34.1688C12.1739 34.0068 12.2725 33.8596 12.3967 33.7357L16.398 29.7345C16.522 29.6105 16.6692 29.5121 16.8312 29.445C16.9932 29.3779 17.1669 29.3433 17.3423 29.3433C17.5176 29.3433 17.6913 29.3779 17.8533 29.445C18.0153 29.5121 18.1626 29.6105 18.2866 29.7345C18.4106 29.8585 18.5089 30.0057 18.576 30.1677C18.6432 30.3297 18.6777 30.5034 18.6777 30.6788C18.6777 30.8541 18.6432 31.0278 18.576 31.1898C18.5089 31.3518 18.4106 31.4991 18.2866 31.6231L16.5714 33.3356C19.2774 33.2212 21.8845 32.2857 24.0459 30.6534C26.2073 29.0212 27.8205 26.7696 28.671 24.1981C29.5215 21.6267 29.5689 18.8572 28.807 16.2581C28.0451 13.659 26.51 11.3534 24.4058 9.64811C24.2696 9.53769 24.1565 9.40148 24.0729 9.24729C23.9894 9.0931 23.9371 8.92395 23.919 8.74953C23.9009 8.5751 23.9174 8.39881 23.9675 8.23077C24.0177 8.06272 24.1004 7.9062 24.2111 7.77018Z" fill="#323232"/>
</svg>
